# xmcd CD database file
#
# Track frame offsets:
#	150
#	23187
#	45980
#	68166
#	89385
#	107087
#	129535
#	153911
#	175245
#	200039
#	226576
#	245298
#	270226
#	289387
#
# Disc length: 4191 seconds
#
# Revision: 0
# Processed by: cddbd v1.5.2PL0 Copyright (c) Steve Scherf et al.
# Submitted via: CDex 1.51
#
DISCID=b6105d0e
DTITLE=Compilation - Pro jazz vol.3
DYEAR=1900
DGENRE=Jazz
TTITLE0=Jackie Allen - You'll Never Learn
TTITLE1=Erik Trufazz - Wilfried
TTITLE2=Mark Moulin - Aria
TTITLE3=Digable Planets - Wheren I'm From
TTITLE4=Flabby - Flabby's Groove
TTITLE5=Paolo Fresu - Canzoncina
TTITLE6=pobert Glasper - Portrait Of An Angel
TTITLE7=Joona Toivanen - Morning Mist
TTITLE8=Gonzalo Rubalcaba - El Guerrillero
TTITLE9=Pat Martino - Groove Yard
TTITLE10=Takashi Matsunaga Trio - F-I-S-H-C-R-Y
TTITLE11=Terence Blanchard - Flow 1
TTITLE12=Tania Maria - Besame Muco
TTITLE13=Dianne Reeves - Lullaby Of Broadway
EXTD=
EXTT0=
EXTT1=
EXTT2=
EXTT3=
EXTT4=
EXTT5=
EXTT6=
EXTT7=
EXTT8=
EXTT9=
EXTT10=
EXTT11=
EXTT12=
EXTT13=
PLAYORDER=
